P3
16 16
255
10 20 30
10 20 30
10 20 30
10 20 30
10 20 30
10 20 30
10 20 30
10 20 30
10 20 30
10 20 30
10 20 30
10 20 30
10 20 30
10 20 30
10 20 30
10 20 30
10 20 30
10 20 30
10 20 30
10 20 30
10 20 30
10 20 30
10 20 30
10 20 30
10 20 30
10 20 30
10 20 30
10 20 30
10 20 30
10 20 30
10 20 30
10 20 30
10 20 30
10 20 30
10 20 30
10 20 30
10 20 30
10 20 30
10 20 30
10 20 30
10 20 30
10 20 30
10 20 30
10 20 30
10 20 30
10 20 30
10 20 30
10 20 30
10 20 30
10 20 30
10 20 30
10 20 30
10 20 30
10 20 30
10 20 30
10 20 30
10 20 30
10 20 30
10 20 30
10 20 30
10 20 30
10 20 30
10 20 30
10 20 30
10 20 30
10 20 30
10 20 30
10 20 30
255 255 0
255 255 0
255 255 0
10 20 30
10 20 30
10 20 30
10 20 30
10 20 30
10 20 30
10 20 30
10 20 30
10 20 30
10 20 30
10 20 30
10 20 30
10 20 30
255 255 0
10 20 30
10 20 30
255 255 0
10 20 30
10 20 30
10 20 30
10 20 30
10 20 30
10 20 30
10 20 30
10 20 30
10 20 30
10 20 30
10 20 30
10 20 30
255 255 0
10 20 30
10 20 30
255 255 0
10 20 30
10 20 30
10 20 30
10 20 30
10 20 30
10 20 30
10 20 30
10 20 30
10 20 30
10 20 30
10 20 30
10 20 30
255 255 0
255 255 0
255 255 0
10 20 30
10 20 30
10 20 30
10 20 30
10 20 30
10 20 30
10 20 30
10 20 30
10 20 30
10 20 30
10 20 30
10 20 30
10 20 30
255 255 0
10 20 30
10 20 30
10 20 30
10 20 30
10 20 30
10 20 30
10 20 30
10 20 30
10 20 30
10 20 30
10 20 30
10 20 30
10 20 30
10 20 30
10 20 30
255 255 0
10 20 30
10 20 30
10 20 30
10 20 30
10 20 30
10 20 30
10 20 30
10 20 30
10 20 30
10 20 30
10 20 30
10 20 30
10 20 30
10 20 30
10 20 30
255 255 0
10 20 30
10 20 30
10 20 30
10 20 30
10 20 30
10 20 30
10 20 30
10 20 30
10 20 30
10 20 30
10 20 30
10 20 30
10 20 30
10 20 30
10 20 30
10 20 30
10 20 30
10 20 30
10 20 30
10 20 30
10 20 30
10 20 30
10 20 30
10 20 30
10 20 30
10 20 30
10 20 30
10 20 30
10 20 30
10 20 30
10 20 30
10 20 30
10 20 30
10 20 30
10 20 30
10 20 30
10 20 30
10 20 30
10 20 30
10 20 30
10 20 30
10 20 30
10 20 30
10 20 30
10 20 30
10 20 30
10 20 30
10 20 30
10 20 30
10 20 30
10 20 30
10 20 30
10 20 30
10 20 30
10 20 30
10 20 30
10 20 30
10 20 30
10 20 30
10 20 30
10 20 30
10 20 30
10 20 30
10 20 30
10 20 30
10 20 30
10 20 30
10 20 30
10 20 30
10 20 30
10 20 30
10 20 30
10 20 30
10 20 30
10 20 30
10 20 30
10 20 30
10 20 30
10 20 30
10 20 30
10 20 30
10 20 30
10 20 30
10 20 30
10 20 30
10 20 30
10 20 30
10 20 30
10 20 30
10 20 30
10 20 30
