P3
32 16
255
10 20 30
10 20 30
10 20 30
10 20 30
10 20 30
10 20 30
10 20 30
10 20 30
10 20 30
10 20 30
10 20 30
10 20 30
10 20 30
10 20 30
10 20 30
10 20 30
10 20 30
10 20 30
10 20 30
10 20 30
10 20 30
10 20 30
10 20 30
10 20 30
10 20 30
10 20 30
10 20 30
10 20 30
10 20 30
10 20 30
10 20 30
10 20 30
10 20 30
10 20 30
10 20 30
10 20 30
10 20 30
10 20 30
10 20 30
10 20 30
10 20 30
10 20 30
10 20 30
10 20 30
10 20 30
10 20 30
10 20 30
10 20 30
10 20 30
10 20 30
10 20 30
10 20 30
10 20 30
10 20 30
10 20 30
10 20 30
10 20 30
10 20 30
10 20 30
10 20 30
10 20 30
10 20 30
10 20 30
10 20 30
10 20 30
10 20 30
10 20 30
10 20 30
10 20 30
10 20 30
10 20 30
10 20 30
10 20 30
10 20 30
10 20 30
10 20 30
10 20 30
10 20 30
10 20 30
10 20 30
10 20 30
10 20 30
10 20 30
10 20 30
10 20 30
10 20 30
10 20 30
10 20 30
10 20 30
10 20 30
10 20 30
10 20 30
10 20 30
10 20 30
10 20 30
10 20 30
10 20 30
10 20 30
10 20 30
10 20 30
10 20 30
10 20 30
10 20 30
10 20 30
10 20 30
10 20 30
10 20 30
10 20 30
10 20 30
10 20 30
10 20 30
10 20 30
10 20 30
10 20 30
10 20 30
10 20 30
10 20 30
10 20 30
10 20 30
10 20 30
10 20 30
10 20 30
10 20 30
10 20 30
10 20 30
10 20 30
10 20 30
10 20 30
10 20 30
10 20 30
10 20 30
10 20 30
10 20 30
10 20 30
10 20 30
10 20 30
10 20 30
10 20 30
10 20 30
10 20 30
10 20 30
10 20 30
10 20 30
10 20 30
10 20 30
10 20 30
10 20 30
10 20 30
10 20 30
10 20 30
10 20 30
10 20 30
10 20 30
10 20 30
10 20 30
10 20 30
10 20 30
10 20 30
10 20 30
10 20 30
10 20 30
10 20 30
10 20 30
10 20 30
10 20 30
10 20 30
10 20 30
10 20 30
10 20 30
10 20 30
10 20 30
10 20 30
10 20 30
10 20 30
10 20 30
10 20 30
10 20 30
10 20 30
10 20 30
10 20 30
10 20 30
10 20 30
10 20 30
10 20 30
10 20 30
10 20 30
10 20 30
10 20 30
10 20 30
10 20 30
10 20 30
10 20 30
10 20 30
10 20 30
10 20 30
10 20 30
255 255 255
10 20 30
10 20 30
10 20 30
10 20 30
10 20 30
10 20 30
10 20 30
10 20 30
10 20 30
10 20 30
10 20 30
10 20 30
10 20 30
10 20 30
10 20 30
255 255 255
10 20 30
10 20 30
10 20 30
10 20 30
10 20 30
10 20 30
10 20 30
10 20 30
10 20 30
10 20 30
10 20 30
10 20 30
10 20 30
10 20 30
255 255 255
10 20 30
255 255 255
10 20 30
10 20 30
10 20 30
10 20 30
10 20 30
10 20 30
10 20 30
10 20 30
10 20 30
10 20 30
10 20 30
10 20 30
10 20 30
255 255 255
10 20 30
255 255 255
10 20 30
10 20 30
10 20 30
10 20 30
10 20 30
10 20 30
10 20 30
10 20 30
10 20 30
10 20 30
10 20 30
10 20 30
10 20 30
10 20 30
255 255 255
10 20 30
10 20 30
10 20 30
10 20 30
10 20 30
10 20 30
10 20 30
10 20 30
10 20 30
10 20 30
10 20 30
10 20 30
10 20 30
10 20 30
10 20 30
255 255 255
255 255 255
10 20 30
10 20 30
10 20 30
10 20 30
10 20 30
10 20 30
10 20 30
10 20 30
10 20 30
10 20 30
10 20 30
10 20 30
10 20 30
255 255 255
255 255 255
255 255 255
10 20 30
10 20 30
10 20 30
10 20 30
10 20 30
10 20 30
10 20 30
10 20 30
10 20 30
10 20 30
10 20 30
10 20 30
10 20 30
10 20 30
255 255 255
10 20 30
10 20 30
10 20 30
10 20 30
10 20 30
10 20 30
10 20 30
10 20 30
10 20 30
10 20 30
10 20 30
10 20 30
10 20 30
10 20 30
10 20 30
255 255 255
10 20 30
10 20 30
10 20 30
10 20 30
10 20 30
10 20 30
10 20 30
10 20 30
10 20 30
10 20 30
10 20 30
10 20 30
10 20 30
10 20 30
255 255 255
255 255 255
10 20 30
10 20 30
10 20 30
10 20 30
10 20 30
10 20 30
10 20 30
10 20 30
10 20 30
10 20 30
10 20 30
10 20 30
10 20 30
10 20 30
10 20 30
255 255 255
10 20 30
10 20 30
10 20 30
10 20 30
10 20 30
10 20 30
10 20 30
10 20 30
10 20 30
10 20 30
10 20 30
10 20 30
10 20 30
10 20 30
10 20 30
255 255 255
255 255 255
10 20 30
10 20 30
10 20 30
10 20 30
10 20 30
10 20 30
10 20 30
10 20 30
10 20 30
10 20 30
10 20 30
10 20 30
10 20 30
255 255 255
10 20 30
255 255 255
10 20 30
10 20 30
10 20 30
10 20 30
10 20 30
10 20 30
10 20 30
10 20 30
10 20 30
10 20 30
10 20 30
10 20 30
10 20 30
255 255 255
10 20 30
10 20 30
10 20 30
10 20 30
10 20 30
10 20 30
10 20 30
10 20 30
10 20 30
10 20 30
10 20 30
10 20 30
10 20 30
10 20 30
10 20 30
10 20 30
10 20 30
10 20 30
10 20 30
10 20 30
10 20 30
10 20 30
10 20 30
10 20 30
10 20 30
10 20 30
10 20 30
10 20 30
10 20 30
10 20 30
10 20 30
10 20 30
10 20 30
10 20 30
10 20 30
10 20 30
10 20 30
10 20 30
10 20 30
10 20 30
10 20 30
10 20 30
10 20 30
10 20 30
10 20 30
10 20 30
10 20 30
10 20 30
10 20 30
10 20 30
10 20 30
10 20 30
10 20 30
10 20 30
10 20 30
10 20 30
10 20 30
10 20 30
10 20 30
10 20 30
10 20 30
10 20 30
10 20 30
10 20 30
10 20 30
10 20 30
10 20 30
10 20 30
10 20 30
10 20 30
10 20 30
10 20 30
10 20 30
10 20 30
10 20 30
10 20 30
10 20 30
10 20 30
10 20 30
10 20 30
10 20 30
10 20 30
10 20 30
10 20 30
10 20 30
10 20 30
10 20 30
10 20 30
10 20 30
10 20 30
10 20 30
10 20 30
10 20 30
10 20 30
10 20 30
10 20 30
10 20 30
10 20 30
10 20 30
10 20 30
10 20 30
10 20 30
10 20 30
10 20 30
10 20 30
10 20 30
10 20 30
10 20 30
